Patient4_TMGait_0pt7_01_right_39_EMG.mot
version=1
nRows=16
nColumns=33
inDegrees=no
endheader
time	1LAddLong	2LGlutMax	3LGlutMed	4LIliopsoas	5LSemiMemb	6LBicFemLong	7LRecFem	8LVastMed	9LVastLat	10LGasMed	11LTibAnt	12lTibPost	13LPeroneusLong	14LSol	15LExtDigLong	16LFlexDigLong	17RAddLong	18RGlutMax	19RGlutMed	20RIliopsoas	21RSemiMemb	22RBicFemLong	23RRecFem	24RVastMed	25RVastLat	26RGasMed	27RTibAnt	28RTibPost	29RPeroneusLong	30RSol	31RExtDigLong	32RFlexDigLong
45.39	-0.007019	0.17593	-0.042725	0.018616	-0.042725	-0.070953	0.056152	-0.005646	-0.078278	0.034332	-0.013885	0.007019	0.030823	-0.13443	0.12299	0.026093	0.038605	-0.040588	-0.056915	-0.15259	0.09552	-0.13199	-0.24628	-0.059509	0.017395	-0.11993	0.013428	-0.55557	1.0411	-0.79681	0.003357	-0.040283
45.391	-0.00885	0.17044	0.0177	0.014648	-0.015869	-0.063629	0.004272	-0.005646	-0.028992	0.03418	0.032806	0.010071	-0.039978	-0.097046	0.12985	0.030975	0.064392	-0.014801	-0.030212	-0.1059	0.076294	-0.16174	-0.19379	-0.037689	-0.002136	-0.042419	0.017395	0.45334	1.5097	-1.0814	0.001526	-0.047607
45.392	-0.041351	0.15808	0.09079	0.003052	-0.012054	0.010223	-0.025177	0.009155	-0.037689	0.03006	0.050507	0.007477	0.013123	-0.040131	0.14908	0.025024	0.082703	-0.061646	-0.053558	-0.037537	0.061493	-0.16342	-0.22583	-0.027771	-0.031738	0.040894	0.004425	0.6102	1.2117	-0.81345	0.000916	-0.037689
45.393	-0.056915	0.19073	0.090942	0.009155	-0.063782	-0.015259	0.041504	0.004425	0.052643	0.022278	0.047455	0.024109	-0.019989	-0.031128	0.15289	0.019379	0.069885	-0.074005	-0.001068	0.066833	0.057831	-0.15198	-0.21255	0.003662	0.005035	0.088959	-0.018005	0.54184	0.35034	0.12619	-0.004883	-0.029297
45.394	-0.058594	0.18219	0.023041	0.009155	-0.030518	-0.045624	0.040894	0.006409	0.13748	0.046082	0.059814	0.014648	0.12802	-0.046082	0.13107	0.033112	0.054626	-0.11475	-0.11017	0.007477	0.054169	-0.09491	-0.26794	-0.00946	0.015259	0.087128	0.061798	0.2356	-0.327	0.077515	0.011902	-0.026703
45.395	-0.058594	0.14648	-0.024261	0.00473	-0.015717	-0.007477	-0.01358	0.013885	0.078583	0.057068	-0.007477	0.018005	0.083618	-0.031433	0.10468	0.027618	0.048065	-0.15533	-0.21896	-0.14679	0.063477	-0.07782	-0.27359	0.070648	0.020905	0.006866	0.10056	0.10407	-0.30487	1.0315	0.003052	-0.022278
45.396	-0.052948	0.18097	-0.023956	0.014191	-0.062561	0.27054	-0.060577	0.010681	0.057068	0.055695	-0.020294	0.021515	0.1358	-0.017853	0.089417	0.033722	0.033569	-0.1535	-0.041962	-0.21729	0.066223	-0.055695	-0.32211	0.11704	0.040436	-0.095825	0.097656	-0.37109	-0.1442	1.0559	0.000305	-0.020447
45.397	-0.05722	0.21484	0.005493	0.01236	-0.085449	0.37705	-0.12116	0.012512	0.11185	0.032196	-0.016632	0.024719	0.32227	0.019989	0.061646	0.040131	0.018311	-0.13519	0.14557	-0.12268	0.072479	-0.027008	-0.30243	0.039215	0.035248	-0.11948	-0.014496	-0.090179	0.76004	0.42328	-0.003052	-0.020294
45.398	-0.034485	0.22781	-0.003662	-0.006104	-0.05661	0.32501	-0.076904	0.003357	0.13245	0.013123	-0.012665	0.027008	0.49271	0.048523	0.036926	0.050812	0.032959	-0.18036	0.024567	-0.019531	0.070343	-0.019073	-0.27618	0.032196	0.044708	-0.17425	-0.098572	-0.098267	0.77286	-0.40558	0.006409	-0.028229
45.399	-0.017242	0.24979	0.093536	0.001984	-0.045166	0.22614	0.06012	-0.015564	0.13565	0.040283	0.00351	0.023193	0.19882	-0.001373	-0.034485	0.057831	0.037384	-0.18433	-0.39398	0.033112	0.069275	-0.1004	-0.27557	0.029755	0.023956	-0.15366	-0.10193	-0.055695	0.61844	0.11322	0.010529	-0.011902
45.4	-0.000763	0.23651	0.11932	0.002594	-0.013428	0.177	0.12253	-0.013428	0.11139	0.059967	0.019684	0.032806	-0.22232	-0.003357	-0.041199	0.050201	0.036011	-0.1738	-0.26108	-0.049896	0.062866	-0.1358	-0.28534	0.00473	0.045319	-0.08606	-0.064697	0.53451	0.040436	0.051727	0.002289	-0.003052
45.401	0.006104	0.29266	0.06958	0.004578	0.00061	0.083618	0.02655	-0.005493	0.10529	0.037994	0.02243	0.030365	-0.12619	0.055847	0.031586	0.040283	0.044098	-0.16495	0.023499	0.044403	0.059662	-0.096283	-0.26871	0.009155	0.056915	-0.063934	-0.027618	-0.00473	-0.16525	0.59586	0.001068	-0.000305
45.402	-0.007019	0.28259	0.079651	-0.011597	0.005646	-0.097961	-0.024109	0.012207	0.076752	0.009918	0.011902	0.03067	0.04425	0.079651	0.049744	0.03067	0.046997	-0.16846	0.000153	0.13855	0.05249	-0.09613	-0.26047	-0.007935	0.045166	-0.025787	0.02243	0.041199	-0.29968	0.075226	0.014343	-0.004578
45.403	-0.004272	0.31097	0.003662	-0.013428	0.050049	-0.33127	0.015106	0.034943	0.036163	-0.009918	0.014191	0.034332	0.33554	0.06485	-0.010223	0.027161	0.037689	-0.16617	0.002136	0.14511	0.046844	-0.10284	-0.26993	-0.023193	0.018311	0.016785	0.025177	-0.36575	0.10056	1.0683	0.004578	-0.000763
45.404	0.013275	0.26459	-0.02533	0.015106	0.099945	-0.27863	-0.015259	0.041351	0.05661	-0.026245	0.014343	0.032043	-0.1947	0.078888	-0.014343	0.015411	0.014038	-0.16922	-0.10407	0.15564	0.06546	-0.089874	-0.28107	0.032501	0.016632	-0.00824	0.016479	0.18631	0.26123	1.861	0.007477	-0.00351
45.405	0.020447	0.26504	-0.026703	0.032806	0.086823	-0.12863	-0.013275	0.029449	0.14801	-0.017395	0.027161	0.030975	-0.17349	0.063171	-0.024414	-0.00061	-0.005798	-0.14114	-0.096436	0.20447	0.068359	-0.066986	-0.27405	0.008698	0.010834	-0.014038	0.024872	0.42893	0.10513	1.3025	0.001831	-0.021057
